<?xml version="1.0" encoding="utf-8"?>
<!-- Generator: Adobe Illustrator 16.0.0, SVG Export Plug-In . SVG Version: 6.00 Build 0)  -->
<!DOCTYPE svg PUBLIC "-//W3C//DTD SVG 1.1//EN" "http://www.w3.org/Graphics/SVG/1.1/DTD/svg11.dtd">
<svg version="1.1" id="Layer_1" xmlns="http://www.w3.org/2000/svg" xmlns:xlink="http://www.w3.org/1999/xlink" x="0px" y="0px"
	 width="136.914px" height="44.357px" viewBox="0 0 136.914 44.357" enable-background="new 0 0 136.914 44.357"
	 xml:space="preserve">
<g>
	<defs>
		<rect id="SVGID_1_" y="0" width="136.913" height="44.357"/>
	</defs>
	<clipPath id="SVGID_2_">
		<use xlink:href="#SVGID_1_"  overflow="visible"/>
	</clipPath>
	<path clip-path="url(#SVGID_2_)" fill="#ffffff" d="M24.742,16.405c0-2.878,1.717-4.503,4.177-4.503
		c2.368,0,4.317,1.764,4.317,4.271c0,2.877-1.949,4.641-4.317,4.641C26.459,20.814,24.742,18.958,24.742,16.405 M123.476,16.405
		c0-2.878,1.719-4.503,4.179-4.503c2.366,0,4.316,1.764,4.316,4.316c0,2.832-1.95,4.596-4.316,4.596
		C125.194,20.814,123.476,18.958,123.476,16.405 M82.302,11.809c1.671,0,2.506,0.742,2.878,1.624l-6.824,2.322
		C78.403,13.341,79.934,11.809,82.302,11.809 M57.56,16.962V8.513h-4.411v7.939c0,2.413-0.881,4.131-3.387,4.131
		c-2.507,0-3.389-1.718-3.389-4.131V8.513h-4.409v8.449c0,4.456,2.644,7.613,7.798,7.613C54.914,24.575,57.56,21.417,57.56,16.962
		 M110.943,24.156h4.408V8.513h-4.408V24.156z M61.831,15.337v8.819h4.41v-8.495c0-2.46,1.346-3.436,5.431-3.295V8.281
		C64.755,7.77,61.831,10.37,61.831,15.337 M89.497,22.625l-1.857-3.158c-1.113,0.835-2.367,1.393-4.362,1.393
		c-1.857,0-3.39-0.603-4.226-1.856l10.863-3.436c-0.418-4.781-3.11-7.428-7.567-7.428c-4.781,0-8.029,3.296-8.029,8.17
		c0,5.061,3.573,8.265,8.959,8.265C85.969,24.575,88.058,23.879,89.497,22.625 M101.845,12.18c1.531,0,2.413,0.417,3.388,1.068
		l1.903-3.342c-1.438-1.16-3.249-1.765-5.663-1.765c-4.596,0-8.401,3.065-8.401,8.218c0,5.151,3.713,8.216,8.634,8.216
		c2.461,0,4.178-0.56,5.617-1.858l-1.95-3.203c-0.928,0.698-1.811,1.161-3.39,1.161c-2.552,0-4.455-1.625-4.455-4.223
		C97.527,13.759,99.431,12.18,101.845,12.18 M33.283,24.156h4.132V8.513h-4.132v1.486c-1.207-1.3-2.831-1.904-5.013-1.904
		c-4.642,0-8.031,3.342-8.031,8.264c0,4.92,3.342,8.216,8.031,8.216c2.135,0,3.806-0.604,5.013-1.903V24.156z M132.017,24.156h4.131
		V8.513h-4.131v1.624c-1.299-1.391-3.063-2.042-5.013-2.042c-4.642,0-8.031,3.342-8.031,8.264c0,4.92,3.342,8.216,8.031,8.216
		c1.949,0,3.714-0.65,5.013-2.089V24.156z M110.943,5.681h4.408V1.41h-4.408V5.681z M18.336,12.738V8.513H11.28V7.677
		c0-2.785,1.717-4.038,7.288-3.388V0.205C10.63-0.818,6.87,2.06,6.87,7.398v16.758h4.41V12.738H18.336z"/>
	<rect y="8.51" clip-path="url(#SVGID_2_)" fill="#ffffff" width="4.038" height="4.226"/>
	<path clip-path="url(#SVGID_2_)" fill="#ffffff" d="M21.084,32.315c0-0.525,0.383-0.907,0.935-0.907
		c0.539,0,0.921,0.382,0.921,0.907c0,0.524-0.382,0.907-0.921,0.907C21.467,33.223,21.084,32.84,21.084,32.315 M21.325,34.228h1.417
		v7.437h-1.417V34.228z"/>
	<path clip-path="url(#SVGID_2_)" fill="#ffffff" d="M24.924,35.46c0-0.425,0-0.821-0.014-1.231h1.388v0.92h0.016
		c0.339-0.624,1.273-1.147,2.322-1.147c1.714,0,2.763,1.092,2.763,3.018v4.646h-1.416V37.4c0-1.29-0.455-2.168-1.758-2.168
		c-1.275,0-1.884,0.965-1.884,1.898v4.534h-1.417V35.46z"/>
	<path clip-path="url(#SVGID_2_)" fill="#ffffff" d="M33.142,40.433h3.019c0.962,0,1.528-0.057,1.528-0.778
		c0-0.623-0.452-0.724-1.388-0.95l-0.963-0.241c-1.374-0.34-2.324-0.623-2.324-2.237c0-0.639,0.213-1.092,0.554-1.39
		c0.481-0.424,1.147-0.608,2.152-0.608h2.749l-0.098,1.231h-2.707c-0.878,0-1.302,0.085-1.302,0.724c0,0.622,0.31,0.724,1.316,0.964
		l0.991,0.239c1.261,0.313,2.381,0.609,2.381,2.154c0,0.85-0.311,1.345-0.794,1.658c-0.567,0.353-1.289,0.466-2.238,0.466h-2.876
		V40.433z"/>
	<path clip-path="url(#SVGID_2_)" fill="#ffffff" d="M40.595,35.46c0-0.426,0-0.821-0.015-1.231h1.431
		c0,0.297-0.014,0.623-0.014,0.948h0.029c0.481-0.666,1.375-1.176,2.507-1.176c2.197,0,3.627,1.656,3.627,3.981
		c0,2.295-1.531,3.938-3.656,3.938c-1.175,0-2.011-0.481-2.52-1.119c0.013,0.326,0.027,1.104,0.027,1.828v1.587h-1.416V35.46z
		 M46.672,37.925c0-1.544-0.892-2.691-2.38-2.691c-1.486,0-2.38,1.162-2.38,2.691c0,1.602,0.878,2.764,2.38,2.764
		C45.78,40.688,46.672,39.526,46.672,37.925"/>
	<path clip-path="url(#SVGID_2_)" fill="#ffffff" d="M49.592,32.315c0-0.525,0.382-0.907,0.935-0.907
		c0.538,0,0.921,0.382,0.921,0.907c0,0.524-0.383,0.907-0.921,0.907C49.974,33.223,49.592,32.84,49.592,32.315 M49.833,34.228h1.417
		v7.437h-1.417V34.228z"/>
	<path clip-path="url(#SVGID_2_)" fill="#ffffff" d="M53.432,35.46c0-0.425,0-0.821-0.014-1.231h1.374v0.949h0.014
		c0.241-0.695,0.921-1.134,1.772-1.134c0.183,0,0.282,0.015,0.381,0.027v1.304c-0.127-0.027-0.354-0.043-0.509-0.043
		c-1.347,0-1.601,1.006-1.601,2.409v3.924h-1.417V35.46z"/>
	<path clip-path="url(#SVGID_2_)" fill="#ffffff" d="M58.022,32.315c0-0.525,0.383-0.907,0.935-0.907
		c0.539,0,0.921,0.382,0.921,0.907c0,0.524-0.382,0.907-0.921,0.907C58.405,33.223,58.022,32.84,58.022,32.315 M58.263,34.228h1.417
		v7.437h-1.417V34.228z"/>
	<path clip-path="url(#SVGID_2_)" fill="#ffffff" d="M61.862,35.46c0-0.425,0-0.821-0.015-1.231h1.389v0.92h0.015
		c0.34-0.624,1.274-1.147,2.323-1.147c1.714,0,2.762,1.092,2.762,3.018v4.646H66.92V37.4c0-1.29-0.454-2.168-1.757-2.168
		c-1.276,0-1.884,0.965-1.884,1.898v4.534h-1.417V35.46z"/>
	<path clip-path="url(#SVGID_2_)" fill="#ffffff" d="M69.995,43.067l0.921-1.049c0.665,0.611,1.516,1.077,2.678,1.077
		c1.345,0,2.465-0.637,2.465-2.394c0-0.155,0-0.426,0.014-0.58h-0.027c-0.496,0.58-1.475,1.146-2.579,1.146
		c-2.125,0-3.541-1.557-3.541-3.639c0-2.083,1.501-3.627,3.568-3.627c1.148,0,1.998,0.438,2.494,1.061h0.015v-0.836h1.346
		c-0.014,0.398,0,0.624,0,1.035v5.51c0,2.594-1.827,3.585-3.868,3.585C72.177,44.356,70.944,43.918,69.995,43.067 M76.059,37.656
		c0-1.39-0.907-2.438-2.366-2.438c-1.417,0-2.295,1.078-2.295,2.438c0,1.347,0.878,2.395,2.295,2.395
		C75.138,40.051,76.059,38.973,76.059,37.656"/>
	<path clip-path="url(#SVGID_2_)" fill="#ffffff" d="M83.03,35.46c0-0.425,0-0.821-0.014-1.231h1.388v0.92h0.015
		c0.341-0.624,1.232-1.147,2.28-1.147c1.091,0,1.899,0.453,2.353,1.274h0.027c0.34-0.537,1.162-1.274,2.607-1.274
		c1.714,0,2.733,1.092,2.733,3.018v4.646h-1.417V37.4c0-1.29-0.425-2.168-1.728-2.168c-1.275,0-1.843,0.965-1.843,1.898v4.534
		h-1.415V37.4c0-1.29-0.427-2.168-1.729-2.168c-1.274,0-1.841,0.965-1.841,1.898v4.534H83.03V35.46z"/>
	<path clip-path="url(#SVGID_2_)" fill="#ffffff" d="M96.009,37.982c0-2.396,1.617-3.982,3.91-3.982c2.295,0,3.91,1.587,3.91,3.982
		c0,2.338-1.572,3.938-3.91,3.938C97.582,41.92,96.009,40.32,96.009,37.982 M102.355,37.968c0-1.559-0.977-2.733-2.437-2.733
		c-1.459,0-2.437,1.175-2.437,2.733c0,1.587,0.963,2.721,2.437,2.721C101.392,40.688,102.355,39.555,102.355,37.968"/>
	<path clip-path="url(#SVGID_2_)" fill="#ffffff" d="M106.833,40.743v0.922h-1.332v-10.13h1.417v1.502c0,0.752,0,1.389-0.014,2.14
		h0.028c0.481-0.666,1.374-1.176,2.508-1.176c2.195,0,3.626,1.656,3.626,3.981c0,2.295-1.53,3.938-3.655,3.938
		C108.236,41.92,107.344,41.424,106.833,40.743 M111.579,37.925c0-1.544-0.892-2.691-2.38-2.691s-2.38,1.162-2.38,2.691
		c0,1.602,0.878,2.764,2.38,2.764C110.688,40.688,111.579,39.526,111.579,37.925"/>
	<path clip-path="url(#SVGID_2_)" fill="#ffffff" d="M114.499,32.315c0-0.525,0.382-0.907,0.935-0.907
		c0.539,0,0.922,0.382,0.922,0.907c0,0.524-0.383,0.907-0.922,0.907C114.881,33.223,114.499,32.84,114.499,32.315 M114.74,34.228
		h1.416v7.437h-1.416V34.228z"/>
	<rect x="118.339" y="31.536" clip-path="url(#SVGID_2_)" fill="#ffffff" width="1.417" height="10.129"/>
	<path clip-path="url(#SVGID_2_)" fill="#ffffff" d="M121.697,32.315c0-0.525,0.382-0.907,0.935-0.907
		c0.538,0,0.921,0.382,0.921,0.907c0,0.524-0.383,0.907-0.921,0.907C122.079,33.223,121.697,32.84,121.697,32.315 M121.938,34.228
		h1.415v7.437h-1.415V34.228z"/>
	<polygon clip-path="url(#SVGID_2_)" fill="#ffffff" points="125.891,35.46 124.94,35.46 124.94,34.229 125.891,34.229 
		125.891,32.202 127.307,32.202 127.307,34.229 129.419,34.229 129.419,35.46 127.307,35.46 127.307,41.665 125.891,41.665 	"/>
	<path clip-path="url(#SVGID_2_)" fill="#ffffff" d="M132.564,41.708l-2.848-7.479h1.502l1.431,4.037
		c0.241,0.709,0.453,1.332,0.637,1.926h0.028c0.241-0.694,0.397-1.247,0.652-1.968l1.431-3.995h1.516l-3.967,9.988h-1.444
		L132.564,41.708z"/>
</g>
</svg>
