<?xml version="1.0" encoding="utf-8"?>
<!-- Generator: Adobe Illustrator 16.0.0, SVG Export Plug-In . SVG Version: 6.00 Build 0)  -->
<!DOCTYPE svg PUBLIC "-//W3C//DTD SVG 1.1//EN" "http://www.w3.org/Graphics/SVG/1.1/DTD/svg11.dtd">
<svg version="1.1" id="Layer_1" xmlns="http://www.w3.org/2000/svg" xmlns:xlink="http://www.w3.org/1999/xlink" x="0px" y="0px"
	 width="185.75px" height="196.352px" viewBox="0 0 185.75 196.352" enable-background="new 0 0 185.75 196.352"
	 xml:space="preserve">
<line fill="none" stroke="#6b6b6b" stroke-width="5" stroke-linecap="round" stroke-miterlimit="10" x1="73.167" y1="28.853" x2="73.167" y2="41.853"/>
<g>
	<defs>
		<rect id="SVGID_1_" width="185.75" height="196.352"/>
	</defs>
	<clipPath id="SVGID_2_">
		<use xlink:href="#SVGID_1_"  overflow="visible"/>
	</clipPath>
	
		<path clip-path="url(#SVGID_2_)" fill="none" stroke="#6b6b6b" stroke-width="5" stroke-linecap="round" stroke-miterlimit="10" d="
		M47.905,159.518c0,0-2.929,18.5,0,34.334"/>
	
		<path clip-path="url(#SVGID_2_)" fill="none" stroke="#6b6b6b" stroke-width="5" stroke-linecap="round" stroke-miterlimit="10" d="
		M89.383,28.833h26c0,0,10.166,0.667,7.833-8.5S116.883,2.5,109.049,2.5H89.383L89,2.519H69.333
		c-7.833,0-11.833,8.667-14.167,17.834c-2.333,9.166,7.834,8.5,7.834,8.5h26L89.383,28.833z"/>
	
		<line clip-path="url(#SVGID_2_)" fill="none" stroke="#6b6b6b" stroke-width="5" stroke-linecap="round" stroke-miterlimit="10" x1="105.216" y1="28.833" x2="105.216" y2="41.833"/>
	
		<path clip-path="url(#SVGID_2_)" fill="none" stroke="#6b6b6b" stroke-width="5" stroke-linecap="round" stroke-miterlimit="10" d="
		M150.883,148.5c0,0,4.333-8.334,4.333-30.667c0-22.333-10.833-50.167-12.833-57S136.549,46.666,123.564,44
		c-12.986-2.667-34.181-2.167-34.181-2.167L89,41.853c0,0-21.196-0.5-34.181,2.166C41.833,46.686,38,54.019,36,60.853
		c-2,6.833-12.834,34.666-12.834,57c0,22.333,4.334,30.666,4.334,30.666"/>
	
		<path clip-path="url(#SVGID_2_)" fill="none" stroke="#6b6b6b" stroke-width="5" stroke-linecap="round" stroke-miterlimit="10" d="
		M89.383,193.833h49.5c32.666-3.167,30.666-36.167,30.666-36.167c0-10.833-11.5-10.5-11.5-10.5c-11,0-20.333,13.667-20.333,13.667
		c-23.5-6.833-48.333-6.333-48.333-6.333L89,154.519c0,0-24.834-0.5-48.334,6.334c0,0-9.333-13.667-20.333-13.667
		c0,0-11.5-0.333-11.5,10.5c0,0-2,33,30.667,36.167H89L89.383,193.833z"/>
	
		<path clip-path="url(#SVGID_2_)" fill="none" stroke="#6b6b6b" stroke-width="5" stroke-linecap="round" stroke-miterlimit="10" d="
		M125.049,148.5c0,0,3.334-30.667-5.333-77.167c0,0-0.833-6.833-8.167-7.833c-7.333-1-22.166-1.334-22.166-1.334L89,62.186
		c0,0-14.834,0.333-22.167,1.333s-8.167,7.834-8.167,7.834c-8.666,46.5-5.333,77.166-5.333,77.166"/>
	
		<path clip-path="url(#SVGID_2_)" fill="none" stroke="#6b6b6b" stroke-width="5" stroke-linecap="round" stroke-miterlimit="10" d="
		M132.366,159.518c0,0,2.93,18.5,0,34.334"/>
	<path clip-path="url(#SVGID_2_)" fill="#6b6b6b" d="M14.5,36.083c0,4.004-3.246,7.25-7.25,7.25c-4.004,0-7.25-3.246-7.25-7.25
		c0-4.004,3.246-7.25,7.25-7.25C11.254,28.833,14.5,32.079,14.5,36.083"/>
	<path clip-path="url(#SVGID_2_)" fill="#6b6b6b" d="M14.5,134.583c0,4.004-3.246,7.25-7.25,7.25c-4.004,0-7.25-3.246-7.25-7.25
		s3.246-7.25,7.25-7.25C11.254,127.333,14.5,130.579,14.5,134.583"/>
	<path clip-path="url(#SVGID_2_)" fill="#6b6b6b" d="M185.75,141.833c0,4.004-3.246,7.25-7.25,7.25s-7.25-3.246-7.25-7.25
		s3.246-7.25,7.25-7.25S185.75,137.829,185.75,141.833"/>
	
		<path clip-path="url(#SVGID_2_)" fill="none" stroke="#6b6b6b" stroke-width="5" stroke-linecap="round" stroke-miterlimit="10" d="
		M172.224,138.213C102.949,75.243,13.761,39.265,13.761,39.265"/>
	
		<path clip-path="url(#SVGID_2_)" fill="none" stroke="#6b6b6b" stroke-width="5" stroke-linecap="round" stroke-miterlimit="10" d="
		M14.387,133.343c0,0,73.279-30.157,157.836,4.87"/>
</g>
</svg>
