<?xml version="1.0" encoding="utf-8"?>
<!-- Generator: Adobe Illustrator 16.0.0, SVG Export Plug-In . SVG Version: 6.00 Build 0)  -->
<!DOCTYPE svg PUBLIC "-//W3C//DTD SVG 1.1//EN" "http://www.w3.org/Graphics/SVG/1.1/DTD/svg11.dtd">
<svg version="1.1" id="Layer_1" xmlns="http://www.w3.org/2000/svg" xmlns:xlink="http://www.w3.org/1999/xlink" x="0px" y="0px"
	 width="212.907px" height="186.876px" viewBox="0 0 212.907 186.876" enable-background="new 0 0 212.907 186.876"
	 xml:space="preserve">
<g>
	<defs>
		<rect id="SVGID_1_" width="212.907" height="186.876"/>
	</defs>
	<clipPath id="SVGID_2_">
		<use xlink:href="#SVGID_1_"  overflow="visible"/>
	</clipPath>
	
		<path clip-path="url(#SVGID_2_)" fill="none" stroke="#c3136a" stroke-width="5" stroke-linecap="round" stroke-miterlimit="10" d="
		M54.034,150.393L27.531,123.89c-7.39-7.39-7.39-19.48,0-26.871l59.462-59.462c7.39-7.39,19.48-7.39,26.87,0l26.504,26.503
		c7.39,7.39,7.39,19.481,0,26.871l-59.463,59.462C73.515,157.783,61.424,157.783,54.034,150.393z"/>
	
		<path clip-path="url(#SVGID_2_)" fill="none" stroke="#c3136a" stroke-width="5" stroke-linecap="round" stroke-miterlimit="10" d="
		M119.063,42.755l12.69-12.69c8.342-8.342,21.991-8.342,30.331,0l3.202,2.571l3.568-3.569"/>
	
		<path clip-path="url(#SVGID_2_)" fill="none" stroke="#c3136a" stroke-width="5" stroke-linecap="round" stroke-miterlimit="10" d="
		M133.862,58.727l15.572-15.572l3.047,2.248c7.651,7.652,22.187,7.943,29.838,0.291l1.857-1.933"/>
	
		<line clip-path="url(#SVGID_2_)" fill="none" stroke="#c3136a" stroke-width="5" stroke-linecap="round" stroke-miterlimit="10" x1="127.136" y1="34.683" x2="142.469" y2="50.121"/>
	
		<polyline clip-path="url(#SVGID_2_)" fill="none" stroke="#c3136a" stroke-width="5" stroke-linecap="round" stroke-linejoin="round" stroke-miterlimit="10" points="
		188.332,11.707 197.069,2.5 210.407,16.45 203.077,24.668 	"/>
	
		<path clip-path="url(#SVGID_2_)" fill="none" stroke="#c3136a" stroke-width="5" stroke-linecap="round" stroke-miterlimit="10" d="
		M36.718,132.657l-15.956,15.956c-4.163,4.163-10.976,4.163-15.139,0c-4.164-4.164-4.164-10.977,0-15.141l15.956-15.956"/>
	
		<path clip-path="url(#SVGID_2_)" fill="none" stroke="#c3136a" stroke-width="5" stroke-linecap="round" stroke-miterlimit="10" d="
		M58.798,155.287l-25.966,25.966c-4.164,4.163-10.976,4.163-15.139,0c-4.164-4.162-4.164-10.976,0-15.139l25.965-25.967"/>
	
		<line clip-path="url(#SVGID_2_)" fill="none" stroke="#c3136a" stroke-width="5" stroke-linecap="round" stroke-miterlimit="10" x1="5.623" y1="133.474" x2="20.762" y2="148.613"/>
	
		<line clip-path="url(#SVGID_2_)" fill="none" stroke="#c3136a" stroke-width="5" stroke-linecap="round" stroke-miterlimit="10" x1="12.08" y1="127.016" x2="27.22" y2="142.155"/>
	
		<line clip-path="url(#SVGID_2_)" fill="none" stroke="#c3136a" stroke-width="5" stroke-linecap="round" stroke-miterlimit="10" x1="18.482" y1="165.323" x2="33.622" y2="180.464"/>
	
		<line clip-path="url(#SVGID_2_)" fill="none" stroke="#c3136a" stroke-width="5" stroke-linecap="round" stroke-miterlimit="10" x1="24.94" y1="158.866" x2="40.08" y2="174.005"/>
	
		<line clip-path="url(#SVGID_2_)" fill="none" stroke="#c3136a" stroke-width="5" stroke-linecap="round" stroke-miterlimit="10" x1="23.856" y1="100.693" x2="77.23" y2="154.067"/>
	
		<line clip-path="url(#SVGID_2_)" fill="none" stroke="#c3136a" stroke-width="5" stroke-linecap="round" stroke-miterlimit="10" x1="91.968" y1="32.582" x2="145.342" y2="85.956"/>
	
		<line clip-path="url(#SVGID_2_)" fill="none" stroke="#c3136a" stroke-width="5" stroke-linecap="round" stroke-miterlimit="10" x1="98.326" y1="53.207" x2="44.694" y2="106.838"/>
	
		<line clip-path="url(#SVGID_2_)" fill="none" stroke="#c3136a" stroke-width="5" stroke-linecap="round" stroke-miterlimit="10" x1="123.619" y1="78.5" x2="69.988" y2="132.132"/>
	
		<line clip-path="url(#SVGID_2_)" fill="none" stroke="#c3136a" stroke-width="5" stroke-linecap="round" stroke-miterlimit="10" x1="110.989" y1="65.871" x2="57.357" y2="119.501"/>
	
		<path clip-path="url(#SVGID_2_)" fill="none" stroke="#c3136a" stroke-width="5" stroke-linecap="round" stroke-miterlimit="10" d="
		M181.401,40.762l-8.069-8.068c-4.446-4.447-4.446-11.722,0-16.167l1.827-1.827c4.445-4.445,11.721-4.445,16.166,0l8.068,8.069
		c4.445,4.446,4.445,11.721,0,16.166l-1.826,1.827C193.122,45.208,185.846,45.208,181.401,40.762z"/>
</g>
</svg>
